<svg xmlns="http://www.w3.org/2000/svg" xmlns:xlink="http://www.w3.org/1999/xlink" width="1920" zoomAndPan="magnify" viewBox="0 0 1440 809.999993" height="1080" preserveAspectRatio="xMidYMid meet" version="1.0"><defs><clipPath id="52a8ca2572"><path d="M 23 190 L 1427 190 L 1427 642.496094 L 23 642.496094 Z M 23 190 " clip-rule="nonzero"/></clipPath></defs><g clip-path="url(#52a8ca2572)"><path fill="#ffffff" d="M 23.605469 401.875 L 23.605469 612.898438 L 131.523438 612.898438 L 131.523438 494.679688 L 179.390625 495.617188 L 227.253906 496.550781 L 315.316406 612.824219 L 373.6875 612.859375 C 418.519531 612.886719 431.472656 611.949219 429.539062 608.8125 C 427.546875 605.597656 346.777344 499.660156 333.15625 482.40625 C 330.894531 479.539062 334.707031 475.980469 346.40625 470.054688 C 401.292969 442.238281 431.832031 382.355469 421.875 322.058594 C 413.945312 274.050781 387.070312 238.320312 342.550781 216.589844 C 296.914062 194.316406 291.660156 193.644531 150.914062 192.179688 L 23.605469 190.855469 Z M 448.523438 231.820312 L 448.523438 272.289062 L 593.535156 272.289062 L 593.535156 613.066406 L 648.335938 612.140625 L 703.136719 611.210938 L 704.886719 272.289062 L 849.835938 272.289062 L 849.835938 191.351562 L 448.523438 191.351562 Z M 907.167969 402.125 L 907.167969 612.898438 L 1008.335938 612.898438 L 1008.34375 490.648438 L 1008.351562 368.402344 L 1141.546875 569.074219 L 1166.714844 568.222656 L 1191.878906 567.371094 L 1257.765625 466.460938 L 1323.652344 365.546875 L 1324.535156 489.222656 L 1325.421875 612.898438 L 1426.507812 612.898438 L 1426.507812 191.351562 L 1337.140625 191.453125 L 1291.667969 261.378906 C 1263.515625 304.664062 1235.332031 347.925781 1207.121094 391.164062 L 1168.046875 451.023438 L 1082.289062 321.210938 L 996.535156 191.398438 L 907.167969 191.351562 Z M 131.523438 344.796875 L 131.523438 417.300781 L 181.941406 417.300781 C 238.210938 417.300781 261.445312 413.710938 282.144531 401.820312 C 300.699219 391.160156 310.480469 374.675781 312.6875 350.351562 C 314.054688 335.257812 312.914062 327.292969 307.703125 315.503906 C 292.972656 282.203125 264.773438 272.289062 184.773438 272.289062 L 131.523438 272.289062 Z M 136.433594 873.421875 C 135.539062 875.761719 135.207031 930.019531 135.695312 993.996094 L 136.582031 1110.320312 L 1284.980469 1110.320312 L 1285.097656 990.601562 L 1285.210938 870.882812 L 711.636719 870.03125 C 253.070312 869.347656 137.738281 870.03125 136.433594 873.421875 M 482.25 905.152344 C 452.820312 913.996094 436.554688 924.011719 409.859375 949.71875 C 390.21875 968.636719 367.589844 1000.308594 367.589844 1008.878906 C 367.589844 1011.8125 366.070312 1014.210938 364.214844 1014.210938 C 362.289062 1014.210938 360.84375 1024.316406 360.84375 1037.789062 C 360.84375 1064.136719 366.519531 1074.261719 386.648438 1083.8125 C 399.183594 1089.761719 448.390625 1088.671875 470.445312 1081.957031 C 477.863281 1079.699219 488.488281 1076.585938 494.050781 1075.039062 L 504.167969 1072.230469 L 492.195312 1071.882812 C 485.613281 1071.695312 478.671875 1073.089844 476.773438 1074.988281 C 471.160156 1080.605469 421.410156 1080.585938 409.066406 1074.960938 C 381.84375 1062.554688 383.230469 1026.957031 412.613281 983.9375 C 443.28125 939.03125 478.941406 909.667969 502.804688 909.667969 C 510.351562 909.667969 512.601562 911.214844 512.601562 916.410156 C 512.601562 920.121094 510.507812 923.15625 507.953125 923.15625 C 500.363281 923.15625 493.964844 932.847656 498.535156 937.417969 C 504.441406 943.324219 519.929688 927.40625 518.652344 916.75 C 517.152344 904.21875 501.710938 899.304688 482.25 905.152344 M 822.507812 906.542969 C 772.640625 914.976562 704.355469 983.679688 684.984375 1044.902344 C 680.757812 1058.261719 685.867188 1076.292969 696.34375 1084.984375 C 705.488281 1092.578125 730.125 1090.023438 747.847656 1079.652344 C 766.902344 1068.5 767.804688 1067.632812 781.933594 1046.996094 C 806.8125 1010.640625 793.390625 983.46875 760.46875 1003.542969 C 750.832031 1009.421875 729.253906 1043.132812 732.835938 1046.714844 C 735.550781 1049.429688 758.695312 1033.191406 758.742188 1028.542969 C 758.761719 1026.226562 760.300781 1024.328125 762.15625 1024.328125 C 764.007812 1024.328125 765.527344 1022.082031 765.527344 1019.34375 C 765.527344 1012.53125 780.175781 1003.453125 786.972656 1006.0625 C 793.234375 1008.464844 793.820312 1011.714844 789.527344 1020.15625 C 786.929688 1025.363281 784.398438 1030.601562 781.941406 1035.875 C 773 1054.992188 745.816406 1078.285156 732.4375 1078.285156 C 723.96875 1078.285156 711.570312 1064.398438 711.570312 1054.914062 C 711.570312 1045.105469 722.40625 1014.210938 725.851562 1014.210938 C 727.269531 1014.210938 728.429688 1012.609375 728.429688 1010.652344 C 728.429688 1008.695312 734.320312 998.449219 741.515625 987.886719 C 764.84375 953.652344 821.101562 909.667969 841.5625 909.667969 C 847.527344 909.667969 848.195312 916.375 842.25 916.5 C 837.226562 916.609375 813.214844 938.25 805.035156 950.042969 C 793.394531 966.816406 801.988281 984.535156 817.578125 975.914062 C 838.867188 964.140625 859.953125 936.972656 859.953125 921.3125 C 859.953125 917.160156 862.117188 912.929688 864.765625 911.914062 C 870.722656 909.625 896.636719 918.921875 918.710938 931.257812 C 933.113281 939.304688 936.347656 939.976562 943.160156 936.335938 C 947.476562 934.023438 951.007812 931.027344 951.007812 929.671875 C 951.007812 928.316406 941.523438 922.226562 929.929688 916.132812 C 909.894531 905.605469 906.996094 905.046875 871.410156 904.832031 C 850.816406 904.707031 828.8125 905.480469 822.507812 906.542969 M 980.890625 915.625 C 952.074219 932.601562 917.179688 970.121094 885.289062 1018.425781 C 878.246094 1029.089844 871.414062 1037.816406 870.105469 1037.816406 C 868.796875 1037.816406 866.082031 1034.402344 864.066406 1030.226562 C 861.15625 1024.1875 860.363281 1023.84375 860.183594 1028.542969 C 859.898438 1035.820312 856.886719 1035.96875 847.214844 1029.191406 C 837.460938 1022.363281 837.753906 1017.132812 848.40625 1007.871094 C 858.125 999.421875 865.15625 1002.121094 867.722656 1015.296875 C 868.550781 1019.550781 869.34375 1017.320312 869.613281 1009.992188 C 870.058594 997.632812 869.792969 997.347656 857.910156 997.347656 C 840.484375 997.347656 818.5625 1014.867188 795.597656 1047.144531 C 787.734375 1058.199219 785.601562 1064.449219 786.40625 1074.121094 C 787.359375 1085.667969 788.382812 1086.804688 798.628906 1087.789062 C 813.390625 1089.203125 836.769531 1072.613281 851.335938 1050.375 C 854.648438 1045.324219 860.179688 1041.1875 863.628906 1041.1875 C 868.875 1041.1875 869.566406 1042.980469 867.855469 1052.148438 C 866.726562 1058.179688 864.488281 1064.546875 862.878906 1066.3125 C 855.207031 1074.714844 864.230469 1088.410156 877.417969 1088.382812 C 881.722656 1088.375 889.796875 1084.632812 895.363281 1080.074219 L 905.480469 1071.78125 L 896.207031 1071.660156 C 891.089844 1071.59375 886.9375 1069.652344 886.953125 1067.324219 C 887.007812 1055.179688 895.007812 1037.292969 903.644531 1030.027344 C 911.277344 1023.609375 912.546875 1020.867188 909.445312 1017.511719 C 906.316406 1014.121094 906.769531 1013.671875 911.59375 1015.375 C 914.960938 1016.5625 921.789062 1015.390625 926.769531 1012.765625 C 938.53125 1006.574219 986.355469 960.753906 983.761719 958.160156 C 982.667969 957.066406 976.988281 961.625 971.136719 968.289062 C 960.539062 980.355469 919.867188 1014.210938 915.960938 1014.210938 C 903.339844 1014.210938 968.65625 930.804688 992.8125 916.074219 C 1006.671875 907.621094 1009.441406 908.003906 1007.511719 918.097656 C 1006.625 922.734375 1007.207031 926.527344 1008.804688 926.527344 C 1010.402344 926.527344 1011.710938 921.976562 1011.710938 916.410156 C 1011.710938 903.207031 1002.375 902.96875 980.890625 915.625 M 1050.265625 912.777344 C 1041.472656 921.152344 1018.941406 930.542969 1003.632812 932.203125 C 986.164062 934.101562 971.242188 940.847656 971.242188 946.839844 C 971.242188 950.996094 996.339844 951.167969 1004.167969 947.070312 C 1007.390625 945.378906 1014.703125 941.964844 1020.425781 939.480469 C 1031.554688 934.640625 1057.203125 913.566406 1054.835938 911.199219 C 1054.050781 910.417969 1052 911.125 1050.265625 912.777344 M 833.839844 927.457031 C 816.574219 940.582031 801.910156 961.214844 804.695312 968.46875 C 807.289062 975.238281 810.839844 975.113281 822.132812 967.855469 C 837.730469 957.832031 853.207031 935.375 853.207031 922.769531 C 853.207031 914.132812 850.503906 914.789062 833.839844 927.457031 M 478.460938 961.746094 C 469.886719 968.039062 459.332031 978.242188 455.015625 984.425781 C 450.699219 990.605469 446.332031 996.421875 445.3125 997.347656 C 440.183594 1002.03125 435.035156 1015.171875 435.035156 1023.605469 C 435.035156 1036.148438 440.644531 1041.1875 454.605469 1041.1875 C 464.265625 1041.1875 469.496094 1037.722656 487.65625 1019.292969 C 499.519531 1007.253906 509.226562 995.871094 509.226562 994.003906 C 509.226562 992.132812 512.261719 990.601562 515.972656 990.601562 C 519.683594 990.601562 522.71875 991.3125 522.71875 992.1875 C 522.71875 993.058594 519.683594 999.175781 515.972656 1005.777344 C 512.261719 1012.382812 509.273438 1020.398438 509.335938 1023.585938 C 509.683594 1042.441406 535.597656 1047.414062 557.164062 1032.757812 C 563.988281 1028.121094 571.171875 1024.328125 573.125 1024.328125 C 575.074219 1024.328125 576.675781 1028.121094 576.675781 1032.757812 C 576.675781 1040.085938 578.160156 1041.1875 588.066406 1041.1875 C 594.328125 1041.1875 601.378906 1038.875 603.722656 1036.046875 C 607.546875 1031.433594 608.582031 1031.433594 613.675781 1036.046875 C 621.777344 1043.375 632.179688 1042.421875 647.125 1032.992188 C 659.980469 1024.875 682.359375 1000.738281 679.597656 997.976562 C 678.804688 997.1875 671.640625 1002.773438 663.671875 1010.394531 C 650.835938 1022.671875 640.75 1027.960938 640.75 1022.417969 C 640.75 1018.703125 647.785156 1007.472656 666.074219 981.972656 C 676.261719 967.78125 684.589844 954.933594 684.589844 953.425781 C 684.589844 948.714844 644.707031 950.230469 634.894531 955.316406 C 629.769531 957.972656 610.964844 975.269531 593.113281 993.753906 C 559.066406 1029 545.492188 1036.980469 537.710938 1026.332031 C 534.316406 1021.691406 534.570312 1017.898438 539.039062 1006.441406 C 546.035156 988.523438 576.105469 956.878906 586.140625 956.878906 C 595.925781 956.878906 595.503906 961.554688 585.105469 968.371094 C 580.46875 971.410156 576.675781 975.484375 576.675781 977.425781 C 576.675781 984.230469 590.699219 978.707031 596.089844 969.78125 C 600.613281 962.292969 600.785156 959.863281 597.121094 955.449219 C 588.746094 945.351562 572.894531 949.078125 548.007812 966.996094 C 535.128906 976.269531 523.289062 983.859375 521.703125 983.859375 C 520.117188 983.859375 519.15625 978.925781 519.570312 972.898438 C 521.046875 951.457031 520.292969 950.128906 506.699219 950.21875 C 497.722656 950.277344 489.53125 953.621094 478.460938 961.746094 M 701.347656 957.722656 L 694.238281 965.308594 L 703.191406 966.40625 C 711.386719 967.40625 721.269531 960.023438 721.578125 952.664062 C 721.8125 947.136719 708.042969 950.578125 701.347656 957.722656 M 495.699219 963.65625 L 487.882812 970.4375 L 495.765625 978.828125 C 503.152344 986.691406 504.039062 986.871094 509.8125 981.644531 C 518.1875 974.066406 518.140625 956.878906 509.742188 956.878906 C 506.316406 956.878906 499.996094 959.929688 495.699219 963.65625 M 630.789062 976.410156 C 608.152344 999.191406 597.03125 1019.125 603.480469 1025.363281 C 606.730469 1028.507812 611.617188 1025.03125 625.878906 1009.449219 C 635.914062 998.484375 644.121094 988.175781 644.121094 986.542969 C 644.121094 984.910156 647.015625 980.472656 650.550781 976.675781 C 654.085938 972.882812 657.738281 966.871094 658.667969 963.328125 C 661.832031 951.234375 650.554688 956.523438 630.789062 976.410156 M 473.5625 989.757812 C 469.9375 994.859375 464.820312 1003.253906 462.1875 1008.410156 C 457.957031 1016.683594 458.035156 1018.421875 462.875 1023.261719 C 467.933594 1028.320312 469 1028.316406 476.761719 1023.230469 C 481.386719 1020.199219 489.386719 1012.195312 494.539062 1005.441406 L 503.902344 993.164062 L 496.074219 986.824219 C 485.515625 978.277344 481.324219 978.824219 473.5625 989.757812 M 962.546875 1003.75 C 954.421875 1008.710938 934.839844 1029.589844 908.265625 1061.628906 C 904.789062 1065.824219 904.726562 1069.085938 907.957031 1077.648438 C 912.652344 1090.089844 922.402344 1091.832031 936.308594 1082.71875 C 944.441406 1077.390625 945.179688 1077.390625 948.160156 1082.71875 C 954.097656 1093.324219 969.230469 1089.550781 987.832031 1072.828125 C 997.355469 1064.265625 1006.808594 1054.019531 1008.835938 1050.0625 C 1010.945312 1045.953125 1006.15625 1049.007812 997.652344 1057.207031 C 983.066406 1071.269531 974.613281 1075.175781 974.613281 1067.84375 C 974.613281 1064.558594 986.511719 1045.570312 991.3125 1041.1875 C 993.746094 1038.96875 1001.023438 1027.339844 1003.972656 1020.953125 C 1005.257812 1018.171875 1009.042969 1012.953125 1012.382812 1009.355469 C 1015.722656 1005.761719 1018.453125 1001.773438 1018.453125 1000.492188 C 1018.453125 999.210938 1008.089844 998.0625 995.425781 997.945312 C 978.953125 997.789062 969.59375 999.441406 962.546875 1003.75 M 960.332031 1023.625 C 944.753906 1039.109375 929.8125 1063.882812 932.96875 1068.988281 C 936.3125 1074.40625 946.875 1071.132812 954.675781 1062.265625 C 969.355469 1045.574219 988.101562 1017.671875 988.101562 1012.515625 C 988.101562 1003.019531 976.308594 1007.738281 960.332031 1023.625 M 819.773438 1042.453125 C 806.628906 1061.5625 806.039062 1071.539062 818.058594 1071.539062 C 826.75 1071.539062 846.464844 1055.339844 846.464844 1048.191406 C 846.464844 1046.195312 847.980469 1044.5625 849.835938 1044.5625 C 856.371094 1044.5625 853.101562 1038.84375 843.933594 1034.25 C 838.835938 1031.691406 833.652344 1029.089844 832.421875 1028.464844 C 831.191406 1027.835938 825.496094 1034.136719 819.773438 1042.453125 M 526.089844 1063.78125 C 502.578125 1066.324219 504.734375 1069.527344 531.242188 1071.433594 C 551.65625 1072.910156 560.910156 1075.230469 568.859375 1080.894531 C 579.964844 1088.800781 593.535156 1090.921875 593.535156 1084.753906 C 593.535156 1080.464844 635.265625 1082 645.808594 1086.675781 C 651.683594 1089.277344 651.988281 1088.972656 648.195312 1084.304688 C 645.800781 1081.351562 635.515625 1075 625.339844 1070.179688 C 608.832031 1062.367188 603.128906 1061.480469 572.367188 1061.960938 C 553.40625 1062.257812 532.582031 1063.074219 526.089844 1063.78125 M 136.433594 1166.820312 C 135.539062 1169.15625 135.207031 1223.414062 135.695312 1287.390625 L 136.582031 1403.71875 L 1285.210938 1403.71875 L 1285.097656 1284 L 1284.980469 1164.28125 L 711.523438 1163.425781 C 253.050781 1162.746094 137.738281 1163.425781 136.433594 1166.820312 M 898.734375 1199.53125 C 891.316406 1202.890625 880.710938 1210.453125 875.164062 1216.339844 C 866.226562 1225.824219 865.113281 1229.292969 865.351562 1246.90625 C 865.570312 1263.117188 867.320312 1269.003906 874.859375 1278.886719 C 884.929688 1292.089844 904.929688 1306.070312 918.691406 1309.523438 C 923.480469 1310.722656 927.402344 1313.0625 927.402344 1314.714844 C 927.402344 1316.371094 929.441406 1317.722656 931.9375 1317.722656 C 938.011719 1317.722656 947.632812 1328.691406 947.632812 1335.617188 C 947.632812 1338.671875 943.890625 1343.625 939.316406 1346.625 C 926.542969 1354.992188 907.21875 1350.253906 889.113281 1334.316406 C 880.851562 1327.042969 873.191406 1321.09375 872.082031 1321.09375 C 870.972656 1321.09375 870.070312 1330.886719 870.070312 1342.855469 L 870.070312 1364.617188 L 882.714844 1370.117188 C 889.675781 1373.144531 897.996094 1377.007812 901.21875 1378.707031 C 910.769531 1383.746094 962.179688 1382.433594 973.339844 1376.867188 C 993.132812 1366.992188 1011.472656 1340.179688 1011.660156 1320.839844 C 1011.746094 1311.617188 1026.898438 1300.234375 1037.472656 1301.445312 C 1044.75 1302.28125 1049.6875 1306.625 1057.882812 1319.410156 C 1063.828125 1328.683594 1069.910156 1337.789062 1071.398438 1339.640625 C 1072.882812 1341.496094 1076.226562 1347.140625 1078.828125 1352.183594 C 1090.167969 1374.167969 1096.035156 1376.539062 1141.757812 1377.59375 C 1164.824219 1378.128906 1183.699219 1377.28125 1183.699219 1375.710938 C 1183.699219 1374.140625 1179.90625 1369.292969 1175.269531 1364.933594 C 1170.632812 1360.578125 1166.839844 1355.128906 1166.839844 1352.824219 C 1166.839844 1350.523438 1165.703125 1348.128906 1164.308594 1347.511719 C 1161.253906 1346.15625 1146.605469 1325.59375 1146.605469 1322.664062 C 1146.605469 1321.523438 1139.773438 1310.03125 1131.429688 1297.128906 C 1123.082031 1284.226562 1116.253906 1272.859375 1116.253906 1271.863281 C 1116.253906 1270.871094 1112.457031 1265.085938 1107.820312 1259.007812 C 1103.183594 1252.925781 1099.390625 1246.941406 1099.390625 1245.703125 C 1099.390625 1241.511719 1068.070312 1196.316406 1065.171875 1196.316406 C 1063.589844 1196.316406 1062.296875 1198.613281 1062.296875 1201.421875 C 1062.296875 1204.230469 1060.875 1209.164062 1059.136719 1212.382812 C 1057.402344 1215.605469 1052.265625 1226.585938 1047.722656 1236.785156 C 1041.566406 1250.527344 1035.308594 1264.230469 1028.960938 1277.882812 C 1023.183594 1290.289062 1018.453125 1301.886719 1018.453125 1303.660156 C 1018.453125 1305.433594 1016.269531 1307.722656 1013.597656 1308.75 C 1010.292969 1310.015625 1007.519531 1306.925781 1004.929688 1299.070312 C 1001.300781 1288.074219 974.074219 1260.390625 966.886719 1260.390625 C 958.09375 1260.390625 927.898438 1242.425781 926.277344 1236.226562 C 923.085938 1224.035156 927.21875 1219.921875 942.664062 1219.921875 C 957.925781 1219.921875 973.46875 1226.589844 987.878906 1239.316406 C 992.597656 1243.488281 997.414062 1246.902344 998.574219 1246.902344 C 1000.984375 1246.902344 999.324219 1218.589844 996.363281 1209.269531 C 995.28125 1205.863281 990.324219 1202.207031 985.347656 1201.148438 C 980.371094 1200.089844 972.8125 1197.8125 968.554688 1196.085938 C 955.351562 1190.734375 913.609375 1192.796875 898.734375 1199.53125 M 227.109375 1200.53125 C 226.253906 1201.925781 228.5 1203.0625 232.101562 1203.0625 C 236.042969 1203.0625 239.460938 1206.082031 240.6875 1210.648438 C 241.804688 1214.824219 242.742188 1253.429688 242.765625 1296.4375 L 242.8125 1374.644531 L 281.9375 1375.691406 C 321.695312 1376.753906 332.542969 1375.050781 322.34375 1369.34375 C 317.582031 1366.679688 316.902344 1360.800781 317.726562 1329.324219 L 318.6875 1292.429688 L 340.609375 1293.394531 C 364.601562 1294.445312 382.390625 1301.023438 388.734375 1311.183594 C 394.324219 1320.132812 398.441406 1319.4375 394.925781 1310.132812 C 388.390625 1292.851562 384.449219 1278 384.449219 1270.65625 L 384.449219 1262.855469 L 377.460938 1271.738281 C 370.960938 1280.003906 368.601562 1280.625 343.734375 1280.625 L 317.003906 1280.625 L 317.003906 1245.78125 C 317.003906 1226.609375 317.710938 1210.222656 318.578125 1209.355469 C 319.445312 1208.488281 331.554688 1208.871094 345.484375 1210.203125 C 371.675781 1212.699219 391.195312 1221.992188 391.195312 1231.957031 C 391.195312 1234.613281 392.710938 1236.785156 394.566406 1236.785156 C 396.421875 1236.785156 397.9375 1235.359375 397.9375 1233.613281 C 397.9375 1231.867188 396.421875 1229.5 394.566406 1228.355469 C 392.710938 1227.207031 391.171875 1222.1875 391.144531 1217.195312 C 391.046875 1199.992188 391.085938 1200.003906 307.28125 1198.972656 C 264.042969 1198.4375 227.96875 1199.140625 227.109375 1200.53125 M 406.082031 1200.148438 C 405.355469 1201.328125 407.550781 1203.023438 410.964844 1203.917969 C 419.992188 1206.28125 421.84375 1224.023438 421.398438 1303.890625 L 421.011719 1373.367188 L 490.582031 1375.050781 C 559.570312 1376.726562 560.195312 1376.675781 565.042969 1369.269531 C 569.835938 1361.945312 571.785156 1348.074219 568.019531 1348.074219 C 566.96875 1348.074219 561.183594 1351.832031 555.164062 1356.421875 C 546.898438 1362.726562 538.257812 1365.324219 519.863281 1367.03125 L 495.507812 1369.300781 L 496.464844 1330.863281 L 497.425781 1292.429688 L 521.03125 1293.535156 C 539.710938 1294.414062 546.875 1296.347656 555.371094 1302.808594 C 561.277344 1307.300781 566.96875 1310.976562 568.019531 1310.976562 C 571.378906 1310.976562 570.0625 1291.222656 566.558594 1289.058594 C 564.703125 1287.910156 563.183594 1282.398438 563.183594 1276.808594 L 563.183594 1266.648438 L 554.300781 1273.636719 C 547.128906 1279.277344 540.597656 1280.625 520.460938 1280.625 L 495.507812 1280.625 L 496.464844 1244.554688 L 497.425781 1208.488281 L 517.660156 1209.414062 C 540.539062 1210.457031 557.050781 1217.035156 566.292969 1228.78125 C 569.753906 1233.183594 573.8125 1236.785156 575.304688 1236.785156 C 576.800781 1236.785156 576.203125 1234.964844 573.976562 1232.738281 C 571.75 1230.511719 569.929688 1223.871094 569.929688 1217.972656 C 569.929688 1212.082031 567.945312 1205.613281 565.523438 1203.601562 C 560.75 1199.640625 408.425781 1196.34375 406.082031 1200.148438 M 591.851562 1202.792969 C 598.285156 1205.300781 598.671875 1209.359375 600.28125 1291.082031 L 601.96875 1376.738281 L 619.636719 1377.320312 C 637.046875 1377.890625 646.191406 1373.558594 635.902344 1369.609375 C 631.429688 1367.894531 630.632812 1359.457031 630.632812 1313.710938 C 630.632812 1281.578125 631.910156 1260.285156 633.800781 1260.957031 C 636.785156 1262.015625 694.707031 1350.152344 694.707031 1353.636719 C 694.707031 1357.042969 712.507812 1378.425781 715.34375 1378.425781 C 716.976562 1378.425781 718.320312 1375.765625 718.328125 1372.523438 C 718.335938 1369.277344 722.128906 1359.15625 726.757812 1350.03125 C 731.386719 1340.90625 735.175781 1331.421875 735.175781 1328.957031 C 735.175781 1326.488281 736.691406 1324.46875 738.546875 1324.46875 C 740.402344 1324.46875 741.921875 1322.472656 741.921875 1320.039062 C 741.921875 1315.960938 754.53125 1286.824219 762.238281 1273.085938 C 764.046875 1269.863281 765.527344 1264.929688 765.527344 1262.125 C 765.527344 1256.023438 772.191406 1255.164062 772.457031 1261.234375 C 772.558594 1263.554688 772.9375 1290.492188 773.300781 1321.09375 L 773.957031 1376.738281 L 813.582031 1377.691406 C 850.015625 1378.5625 860.203125 1376.402344 849.835938 1369.992188 C 847.734375 1368.695312 846.464844 1336.238281 846.464844 1283.800781 L 846.464844 1199.6875 L 762.894531 1199.6875 L 760.679688 1212.335938 C 759.464844 1219.292969 757.605469 1231.8125 756.546875 1240.15625 C 755.488281 1248.503906 751.707031 1259.449219 748.140625 1264.472656 C 742.523438 1272.386719 740.589844 1273.128906 733.726562 1270.003906 C 729.363281 1268.015625 723.777344 1262.386719 721.304688 1257.492188 C 713.675781 1242.386719 690.738281 1208.347656 685.191406 1203.90625 C 681.507812 1200.953125 665.703125 1199.761719 632.519531 1199.925781 C 606.058594 1200.058594 588.085938 1201.324219 591.851562 1202.792969 M 569.929688 1317.722656 C 569.929688 1319.578125 571.539062 1321.09375 573.5 1321.09375 C 575.464844 1321.09375 576.136719 1319.578125 574.988281 1317.722656 C 573.839844 1315.867188 572.238281 1314.347656 571.417969 1314.347656 C 570.597656 1314.347656 569.929688 1315.867188 569.929688 1317.722656 " fill-opacity="1" fill-rule="evenodd"/></g></svg>